<?xml version="1.0" encoding="UTF-8"?>
<!DOCTYPE svg PUBLIC "-//W3C//DTD SVG 1.1//EN" "http://www.w3.org/Graphics/SVG/1.1/DTD/svg11.dtd">
<svg xmlns="http://www.w3.org/2000/svg" version="1.1" width="500px" height="500px" style="shape-rendering:geometricPrecision; text-rendering:geometricPrecision; image-rendering:optimizeQuality; fill-rule:evenodd; clip-rule:evenodd" xmlns:xlink="http://www.w3.org/1999/xlink">
<g><path style="opacity:1" fill="#fece09" d="M -0.5,-0.5 C 166.167,-0.5 332.833,-0.5 499.5,-0.5C 499.5,166.167 499.5,332.833 499.5,499.5C 332.833,499.5 166.167,499.5 -0.5,499.5C -0.5,332.833 -0.5,166.167 -0.5,-0.5 Z"/></g>
<g><path style="opacity:1" fill="#cb120b" d="M 301.5,85.5 C 311.506,85.3335 321.506,85.5002 331.5,86C 341.973,88.603 352.306,91.603 362.5,95C 395.985,124.487 428.819,154.653 461,185.5C 468.66,199.43 466.493,211.597 454.5,222C 450.717,223.025 448.05,225.192 446.5,228.5C 453.414,282.144 460.08,335.81 466.5,389.5C 367.914,387.934 271.247,400.601 176.5,427.5C 172.709,407.805 167.709,388.471 161.5,369.5C 159.668,370.248 158.001,371.248 156.5,372.5C 163.317,391.283 169.317,410.283 174.5,429.5C 150.827,436.836 127.161,444.169 103.5,451.5C 83.9037,390.377 63.9037,329.377 43.5,268.5C 47.1078,267.199 50.4412,265.532 53.5,263.5C 39.6368,227.244 25.9702,190.911 12.5,154.5C 26.1188,148.343 40.1188,142.843 54.5,138C 61.092,136.671 67.7586,136.171 74.5,136.5C 74.4809,134.94 74.1476,133.44 73.5,132C 73.9054,131.055 74.572,130.388 75.5,130C 106.739,120.274 138.406,112.274 170.5,106C 178.751,104.788 186.751,105.621 194.5,108.5C 195.214,105.973 195.88,103.473 196.5,101C 219.795,98.3217 243.128,96.155 266.5,94.5C 266.34,96.1992 266.506,97.8659 267,99.5C 277.746,92.7566 289.246,88.0899 301.5,85.5 Z"/></g>
<g><path style="opacity:1" fill="#ce1f10" d="M 357.5,111.5 C 351.358,106.677 344.358,104.677 336.5,105.5C 302.673,108.746 274.673,123.079 252.5,148.5C 253.227,146.046 254.227,143.713 255.5,141.5C 279.35,114.595 309.35,101.095 345.5,101C 352.494,101.857 356.494,105.357 357.5,111.5 Z"/></g>
<g><path style="opacity:1" fill="#fecd0a" d="M 254.5,140.5 C 255.167,140.5 255.5,140.833 255.5,141.5C 254.227,143.713 253.227,146.046 252.5,148.5C 251.62,151.262 250.454,153.929 249,156.5C 248.034,161.39 248.534,166.057 250.5,170.5C 246.519,171.021 242.519,171.354 238.5,171.5C 239.661,179.455 240.328,187.455 240.5,195.5C 247.027,195.131 253.527,194.464 260,193.5C 260.833,193.833 261.667,194.167 262.5,194.5C 263.458,199.45 264.124,204.45 264.5,209.5C 250.466,211.773 236.466,214.44 222.5,217.5C 218.772,183.162 215.106,148.829 211.5,114.5C 225.491,113.034 239.491,111.701 253.5,110.5C 253.833,117.167 254.167,123.833 254.5,130.5C 247.898,130.61 241.398,131.277 235,132.5C 235.427,139.121 235.927,145.787 236.5,152.5C 240.509,152.142 244.509,151.642 248.5,151C 249.881,147.062 251.881,143.562 254.5,140.5 Z"/></g>
<g><path style="opacity:1" fill="#d02815" d="M 359.5,114.5 C 388.429,139.925 416.929,165.925 445,192.5C 446.128,194.345 446.628,196.345 446.5,198.5C 418.4,171.844 389.9,145.51 361,119.5C 360.392,117.846 359.892,116.179 359.5,114.5 Z"/></g>
<g><path style="opacity:1" fill="#fecd09" d="M 173.5,120.5 C 185.923,118.291 194.423,122.957 199,134.5C 204.233,155.964 208.4,177.631 211.5,199.5C 211.964,212.866 205.631,220.7 192.5,223C 184.488,224.436 176.488,225.936 168.5,227.5C 167.006,227.291 165.839,226.624 165,225.5C 159.217,192.921 153.051,160.421 146.5,128C 146.905,127.055 147.572,126.388 148.5,126C 157.036,124.481 165.369,122.648 173.5,120.5 Z"/></g>
<g><path style="opacity:1" fill="#cc160d" d="M 338.5,122.5 C 337.135,124.751 337.469,126.751 339.5,128.5C 336.932,130.669 336.932,133.002 339.5,135.5C 343.288,137.256 347.288,137.922 351.5,137.5C 351.791,138.649 352.624,139.316 354,139.5C 356.634,139.066 359.134,138.233 361.5,137C 362.252,136.329 362.586,135.496 362.5,134.5C 362.675,132.379 362.341,130.379 361.5,128.5C 362.301,126.958 362.634,125.292 362.5,123.5C 369.193,129.861 375.86,136.194 382.5,142.5C 390.158,148.826 397.492,155.492 404.5,162.5C 399.156,162.334 393.823,162.501 388.5,163C 386.119,163.223 384.453,164.39 383.5,166.5C 382.167,167.167 382.167,167.833 383.5,168.5C 383.833,169.5 384.5,170.167 385.5,170.5C 382.419,174.178 383.086,176.845 387.5,178.5C 392.116,179.842 396.116,181.176 399.5,182.5C 401.634,182.485 403.634,181.985 405.5,181C 406.598,180.23 406.598,179.397 405.5,178.5C 409.154,176.346 409.487,173.679 406.5,170.5C 408.104,169.713 408.771,168.38 408.5,166.5C 420.164,177.33 431.997,187.996 444,198.5C 446.243,202.131 447.077,206.131 446.5,210.5C 445.375,213.128 443.375,213.961 440.5,213C 439.131,211.281 438.131,209.448 437.5,207.5C 437.5,206.833 437.5,206.167 437.5,205.5C 438.101,196.255 434.268,193.589 426,197.5C 424.711,200.351 424.211,203.351 424.5,206.5C 424.5,212.167 424.5,217.833 424.5,223.5C 423.833,223.833 423.167,224.167 422.5,224.5C 422.5,222.833 422.5,221.167 422.5,219.5C 419.612,220.01 417.279,219.344 415.5,217.5C 416.822,211.797 414.822,208.131 409.5,206.5C 409.702,204.05 409.369,201.717 408.5,199.5C 407.833,190.167 407.167,190.167 406.5,199.5C 405.699,201.042 405.366,202.708 405.5,204.5C 405.167,204.5 404.833,204.5 404.5,204.5C 404.5,201.833 404.5,199.167 404.5,196.5C 405.1,192.484 404.1,188.984 401.5,186C 396.104,184.461 390.604,183.294 385,182.5C 379.797,184.222 377.631,187.889 378.5,193.5C 378.5,195.833 378.5,198.167 378.5,200.5C 372.853,202.701 370.02,200.701 370,194.5C 366.952,190.99 363.619,190.657 360,193.5C 358.711,196.351 358.211,199.351 358.5,202.5C 358.5,204.5 358.5,206.5 358.5,208.5C 355.771,211.054 353.105,211.054 350.5,208.5C 351.859,202.529 349.692,198.863 344,197.5C 339.018,198.899 337.185,202.232 338.5,207.5C 338.5,207.833 338.5,208.167 338.5,208.5C 336.078,210.65 333.411,210.983 330.5,209.5C 330.5,205.167 330.5,200.833 330.5,196.5C 331.729,190.277 329.395,186.277 323.5,184.5C 318.663,186.501 316.663,190.168 317.5,195.5C 317.5,200.167 317.5,204.833 317.5,209.5C 314.589,210.983 311.922,210.65 309.5,208.5C 309.5,198.833 309.5,189.167 309.5,179.5C 310.863,173.916 308.863,170.249 303.5,168.5C 304.304,166.991 305.471,165.657 307,164.5C 307.789,162.288 307.622,160.288 306.5,158.5C 307.742,156.389 307.742,154.389 306.5,152.5C 305.942,151.21 304.942,150.377 303.5,150C 300.167,149.333 296.833,148.667 293.5,148C 295.125,147.147 295.458,146.147 294.5,145C 292.866,144.506 291.199,144.34 289.5,144.5C 289.297,146.39 289.963,147.89 291.5,149C 289.148,149.24 287.148,150.073 285.5,151.5C 283.516,151.484 282.516,152.484 282.5,154.5C 282.752,156.073 283.418,157.406 284.5,158.5C 281.947,160.705 281.947,163.038 284.5,165.5C 280.053,167.761 278.386,171.428 279.5,176.5C 279.5,182.5 279.5,188.5 279.5,194.5C 276.833,197.167 274.167,197.167 271.5,194.5C 272.614,189.428 270.947,185.761 266.5,183.5C 267.833,181.167 267.833,178.833 266.5,176.5C 268.094,173.817 267.761,171.484 265.5,169.5C 263.239,171.484 262.906,173.817 264.5,176.5C 263.631,178.717 263.298,181.05 263.5,183.5C 262.833,183.167 262.167,182.833 261.5,182.5C 261.334,177.821 261.501,173.155 262,168.5C 272.306,153.684 285.472,142.351 301.5,134.5C 301.433,135.959 301.766,137.292 302.5,138.5C 301.232,140.67 301.232,142.837 302.5,145C 307.572,146.717 312.738,148.217 318,149.5C 320.422,149.25 322.589,148.416 324.5,147C 324.167,146.667 323.833,146.333 323.5,146C 326.622,144.245 327.288,141.745 325.5,138.5C 326.768,136.33 326.768,134.163 325.5,132C 321.379,130.101 317.046,129.268 312.5,129.5C 320.818,126.165 329.484,123.831 338.5,122.5 Z"/></g>
<g><path style="opacity:1" fill="#fecd09" d="M 127.5,130.5 C 129.144,130.286 130.644,130.62 132,131.5C 134.133,137.365 135.633,143.365 136.5,149.5C 130.171,150.624 124.004,152.29 118,154.5C 119.322,160.792 120.822,167.125 122.5,173.5C 128.25,172.585 133.916,171.252 139.5,169.5C 140.442,169.608 141.275,169.941 142,170.5C 144.317,176.075 145.483,181.742 145.5,187.5C 140.552,189.154 135.552,190.654 130.5,192C 129.572,192.388 128.905,193.055 128.5,194C 130.411,200.478 132.244,206.978 134,213.5C 134.388,214.428 135.055,215.095 136,215.5C 142.407,213.272 148.907,211.772 155.5,211C 157.394,216.402 159.06,221.902 160.5,227.5C 160.182,228.647 159.516,229.481 158.5,230C 145.525,233.66 132.525,237.16 119.5,240.5C 110.507,207.852 101.507,175.185 92.5,142.5C 92.8178,141.353 93.4844,140.519 94.5,140C 105.701,137.095 116.701,133.928 127.5,130.5 Z"/></g>
<g><path style="opacity:1" fill="#cd1a09" d="M 170.5,139.5 C 173.807,139.063 176.807,139.73 179.5,141.5C 183.806,160.363 187.473,179.363 190.5,198.5C 191.045,203.624 188.712,206.291 183.5,206.5C 178.014,184.403 173.681,162.069 170.5,139.5 Z"/></g>
<g><path style="opacity:1" fill="#fbbf0a" d="M 448.5,201.5 C 447.599,200.71 446.932,199.71 446.5,198.5C 446.628,196.345 446.128,194.345 445,192.5C 416.929,165.925 388.429,139.925 359.5,114.5C 358.094,114.027 357.427,113.027 357.5,111.5C 356.494,105.357 352.494,101.857 345.5,101C 309.35,101.095 279.35,114.595 255.5,141.5C 255.5,140.833 255.167,140.5 254.5,140.5C 261.426,130.74 270.093,122.907 280.5,117C 295.448,108.192 311.448,102.192 328.5,99C 338.528,97.202 347.862,98.8687 356.5,104C 358.806,108.272 361.472,112.272 364.5,116C 391.428,140.383 418.261,164.883 445,189.5C 447.949,192.95 449.116,196.95 448.5,201.5 Z"/></g>
<g><path style="opacity:1" fill="#fecd09" d="M 60.5,151.5 C 69.8875,149.905 77.3875,152.905 83,160.5C 91.047,172.305 94.3803,185.305 93,199.5C 91.813,203.709 89.313,206.876 85.5,209C 81.158,210.838 76.8247,212.672 72.5,214.5C 77.1667,226.833 81.8333,239.167 86.5,251.5C 85.91,252.799 84.91,253.632 83.5,254C 78.5,255.833 73.5,257.667 68.5,259.5C 56.0733,227.389 43.74,195.223 31.5,163C 41.2265,159.042 50.8932,155.208 60.5,151.5 Z"/></g>
<g><path style="opacity:1" fill="#cd1a09" d="M 59.5,171.5 C 63.2727,170.822 66.106,172.156 68,175.5C 71.9492,181.028 73.1159,187.028 71.5,193.5C 69.9288,195.415 67.9288,196.415 65.5,196.5C 63.337,188.846 60.6703,181.346 57.5,174C 58.0556,172.989 58.7222,172.156 59.5,171.5 Z"/></g>
<g><path style="opacity:1" fill="#fceae5" d="M 357.5,111.5 C 357.427,113.027 358.094,114.027 359.5,114.5C 359.892,116.179 360.392,117.846 361,119.5C 389.9,145.51 418.4,171.844 446.5,198.5C 446.932,199.71 447.599,200.71 448.5,201.5C 448.666,207.509 448.499,213.509 448,219.5C 445.005,222.979 441.839,223.312 438.5,220.5C 439.167,220.5 439.5,220.167 439.5,219.5C 444.271,221.406 446.604,219.74 446.5,214.5C 447.686,213.039 447.686,211.705 446.5,210.5C 447.077,206.131 446.243,202.131 444,198.5C 431.997,187.996 420.164,177.33 408.5,166.5C 408.5,165.833 408.167,165.5 407.5,165.5C 406.833,164.167 405.833,163.167 404.5,162.5C 397.492,155.492 390.158,148.826 382.5,142.5C 375.86,136.194 369.193,129.861 362.5,123.5C 362.158,122.662 361.492,122.328 360.5,122.5C 359.121,120.403 357.455,120.07 355.5,121.5C 350.12,121.324 344.787,121.658 339.5,122.5C 339.167,122.5 338.833,122.5 338.5,122.5C 329.484,123.831 320.818,126.165 312.5,129.5C 311.209,129.263 310.209,129.596 309.5,130.5C 307.046,131.227 304.713,132.227 302.5,133.5C 301.833,133.5 301.5,133.833 301.5,134.5C 285.472,142.351 272.306,153.684 262,168.5C 261.501,173.155 261.334,177.821 261.5,182.5C 261.5,183.167 261.5,183.833 261.5,184.5C 261.357,186.262 261.691,187.929 262.5,189.5C 264.771,190.7 267.104,191.7 269.5,192.5C 269.833,193.5 270.5,194.167 271.5,194.5C 271.5,195.5 271.5,196.5 271.5,197.5C 271.664,203.488 274.164,204.821 279,201.5C 279.49,200.207 279.657,198.873 279.5,197.5C 279.5,196.5 279.5,195.5 279.5,194.5C 279.5,188.5 279.5,182.5 279.5,176.5C 280.833,175.833 281.833,174.833 282.5,173.5C 283.695,173.322 284.862,172.989 286,172.5C 293.149,173.973 300.315,175.307 307.5,176.5C 307.427,178.027 308.094,179.027 309.5,179.5C 309.5,189.167 309.5,198.833 309.5,208.5C 309.5,209.5 309.5,210.5 309.5,211.5C 309.481,216.984 311.981,218.65 317,216.5C 317.494,214.866 317.66,213.199 317.5,211.5C 317.5,210.833 317.5,210.167 317.5,209.5C 317.5,204.833 317.5,200.167 317.5,195.5C 318.5,195.167 319.167,194.5 319.5,193.5C 321.878,191.243 324.545,190.91 327.5,192.5C 328.512,193.872 329.512,195.205 330.5,196.5C 330.5,200.833 330.5,205.167 330.5,209.5C 330.5,210.5 330.5,211.5 330.5,212.5C 329.83,215.59 330.997,217.257 334,217.5C 337.562,217.099 339.062,215.099 338.5,211.5C 338.5,210.5 338.5,209.5 338.5,208.5C 338.5,208.167 338.5,207.833 338.5,207.5C 339.5,207.167 340.167,206.5 340.5,205.5C 343.129,204.286 345.796,204.286 348.5,205.5C 348.932,206.71 349.599,207.71 350.5,208.5C 350.5,209.5 350.5,210.5 350.5,211.5C 350.664,217.488 353.164,218.821 358,215.5C 358.49,214.207 358.657,212.873 358.5,211.5C 358.5,210.5 358.5,209.5 358.5,208.5C 358.5,206.5 358.5,204.5 358.5,202.5C 359.401,201.71 360.068,200.71 360.5,199.5C 363.167,198.167 365.833,198.167 368.5,199.5C 369.167,200.5 369.833,201.5 370.5,202.5C 370.481,207.984 372.981,209.65 378,207.5C 378.494,205.866 378.66,204.199 378.5,202.5C 378.5,201.833 378.5,201.167 378.5,200.5C 378.5,198.167 378.5,195.833 378.5,193.5C 379.833,192.833 380.833,191.833 381.5,190.5C 388.746,189.429 395.746,190.429 402.5,193.5C 402.932,194.71 403.599,195.71 404.5,196.5C 404.5,199.167 404.5,201.833 404.5,204.5C 404.5,205.167 404.5,205.833 404.5,206.5C 404.387,212.56 407.387,215.227 413.5,214.5C 413.833,215.167 414.167,215.833 414.5,216.5C 413.833,216.5 413.5,216.833 413.5,217.5C 413.167,217.5 412.833,217.5 412.5,217.5C 409.886,215.981 407.053,214.648 404,213.5C 402.684,210.312 402.184,206.978 402.5,203.5C 396.184,202.407 389.851,201.407 383.5,200.5C 382.791,199.596 381.791,199.263 380.5,199.5C 380.5,201.833 380.5,204.167 380.5,206.5C 377.982,212.058 374.482,212.725 370,208.5C 369.027,206.608 368.36,204.608 368,202.5C 365.667,199.833 363.333,199.833 361,202.5C 360.667,207.167 360.333,211.833 360,216.5C 357.388,219.576 354.221,220.243 350.5,218.5C 348.859,215.442 348.026,212.108 348,208.5C 345.667,205.833 343.333,205.833 341,208.5C 341.966,216.835 338.466,220.335 330.5,219C 329.299,218.097 328.465,216.931 328,215.5C 327.667,208.833 327.333,202.167 327,195.5C 324.368,192.808 322.034,193.141 320,196.5C 319.667,203.167 319.333,209.833 319,216.5C 315.015,221.861 311.349,221.528 308,215.5C 307.5,205.839 307.334,196.172 307.5,186.5C 299.038,185.923 290.704,184.59 282.5,182.5C 281.669,189.142 281.169,195.809 281,202.5C 277.333,206.5 273.667,206.5 270,202.5C 269.667,200.167 269.333,197.833 269,195.5C 266.441,194.02 263.774,192.687 261,191.5C 259.958,187.241 259.125,182.907 258.5,178.5C 254.896,176.712 252.23,174.045 250.5,170.5C 248.534,166.057 248.034,161.39 249,156.5C 250.454,153.929 251.62,151.262 252.5,148.5C 274.673,123.079 302.673,108.746 336.5,105.5C 344.358,104.677 351.358,106.677 357.5,111.5 Z"/></g>
<g><path style="opacity:1" fill="#fecf3b" d="M 284.5,175.5 C 284.917,174.876 285.584,174.543 286.5,174.5C 291.146,175.441 295.813,176.274 300.5,177C 302.852,177.24 304.852,178.073 306.5,179.5C 299.065,178.546 291.731,177.212 284.5,175.5 Z"/></g>
<g><path style="opacity:1" fill="#cf2514" d="M 284.5,175.5 C 291.731,177.212 299.065,178.546 306.5,179.5C 307.301,181.042 307.634,182.708 307.5,184.5C 298.806,183.384 290.139,182.051 281.5,180.5C 281.273,178.067 282.273,176.401 284.5,175.5 Z"/></g>
<g><path style="opacity:1" fill="#fadcdb" d="M 264.5,176.5 C 265.167,176.5 265.833,176.5 266.5,176.5C 267.833,178.833 267.833,181.167 266.5,183.5C 265.5,183.5 264.5,183.5 263.5,183.5C 263.298,181.05 263.631,178.717 264.5,176.5 Z"/></g>
<g><path style="opacity:1" fill="#f0b1b0" d="M 334.5,168.5 C 337.5,168.5 340.5,168.5 343.5,168.5C 345.706,169.972 348.039,170.305 350.5,169.5C 351.605,171.3 350.939,172.467 348.5,173C 343.257,173.694 338.257,173.194 333.5,171.5C 334.009,170.659 333.343,170.159 331.5,170C 332.737,169.768 333.737,169.268 334.5,168.5 Z"/></g>
<g><path style="opacity:1" fill="#d53f27" d="M 253.5,170.5 C 255.565,170.517 257.565,170.85 259.5,171.5C 259.66,173.199 259.494,174.866 259,176.5C 256.668,174.797 254.835,172.797 253.5,170.5 Z"/></g>
<g><path style="opacity:1" fill="#f9d7cb" d="M 404.5,169.5 C 404.842,170.338 405.508,170.672 406.5,170.5C 409.487,173.679 409.154,176.346 405.5,178.5C 403.374,177.952 401.374,177.285 399.5,176.5C 401.927,176.477 404.26,175.977 406.5,175C 407.738,174.31 407.738,173.81 406.5,173.5C 405.653,172.034 404.32,171.2 402.5,171C 397.748,170.227 393.081,170.393 388.5,171.5C 385.116,172.244 384.782,173.577 387.5,175.5C 386.167,176.5 386.167,177.5 387.5,178.5C 383.086,176.845 382.419,174.178 385.5,170.5C 386.791,170.737 387.791,170.404 388.5,169.5C 393.818,168.329 399.151,168.329 404.5,169.5 Z"/></g>
<g><path style="opacity:1" fill="#d02812" d="M 388.5,171.5 C 390.29,172.997 392.456,173.664 395,173.5C 398.176,172.927 401.343,172.76 404.5,173C 401.833,173.667 399.167,174.333 396.5,175C 400.026,175.69 403.36,175.19 406.5,173.5C 407.738,173.81 407.738,174.31 406.5,175C 404.26,175.977 401.927,176.477 399.5,176.5C 395.4,176.763 391.4,176.43 387.5,175.5C 384.782,173.577 385.116,172.244 388.5,171.5 Z"/></g>
<g><path style="opacity:1" fill="#f09616" d="M 406.5,173.5 C 403.36,175.19 400.026,175.69 396.5,175C 399.167,174.333 401.833,173.667 404.5,173C 401.343,172.76 398.176,172.927 395,173.5C 392.456,173.664 390.29,172.997 388.5,171.5C 393.081,170.393 397.748,170.227 402.5,171C 404.32,171.2 405.653,172.034 406.5,173.5 Z"/></g>
<g><path style="opacity:1" fill="#f7c05f" d="M 383.5,168.5 C 385.167,168.5 386.833,168.5 388.5,168.5C 388.5,168.833 388.5,169.167 388.5,169.5C 387.791,170.404 386.791,170.737 385.5,170.5C 384.5,170.167 383.833,169.5 383.5,168.5 Z"/></g>
<g><path style="opacity:1" fill="#fcc618" d="M 303.5,168.5 C 308.863,170.249 310.863,173.916 309.5,179.5C 308.094,179.027 307.427,178.027 307.5,176.5C 307.657,175.127 307.49,173.793 307,172.5C 304.834,171.269 302.667,170.269 300.5,169.5C 301.391,168.89 302.391,168.557 303.5,168.5 Z"/></g>
<g><path style="opacity:1" fill="#f9b609" d="M 266.5,176.5 C 265.833,176.5 265.167,176.5 264.5,176.5C 262.906,173.817 263.239,171.484 265.5,169.5C 267.761,171.484 268.094,173.817 266.5,176.5 Z"/></g>
<g><path style="opacity:1" fill="#f9ba0e" d="M 407.5,165.5 C 408.167,165.5 408.5,165.833 408.5,166.5C 408.771,168.38 408.104,169.713 406.5,170.5C 405.508,170.672 404.842,170.338 404.5,169.5C 406.229,168.764 407.229,167.43 407.5,165.5 Z"/></g>
<g><path style="opacity:1" fill="#cf2513" d="M 293.5,168.5 C 295.607,169.468 297.941,169.802 300.5,169.5C 302.667,170.269 304.834,171.269 307,172.5C 307.49,173.793 307.657,175.127 307.5,176.5C 300.315,175.307 293.149,173.973 286,172.5C 284.862,172.989 283.695,173.322 282.5,173.5C 281.197,171.243 281.864,169.41 284.5,168C 287.475,167.956 290.475,168.123 293.5,168.5 Z"/></g>
<g><path style="opacity:1" fill="#fefbfb" d="M 383.5,166.5 C 384.167,166.5 384.833,166.5 385.5,166.5C 387.179,166.285 388.179,166.952 388.5,168.5C 386.833,168.5 385.167,168.5 383.5,168.5C 382.167,167.833 382.167,167.167 383.5,166.5 Z"/></g>
<g><path style="opacity:1" fill="#fae2e2" d="M 357.5,166.5 C 360.621,167.288 362.288,169.288 362.5,172.5C 358.438,172.131 356.771,170.131 357.5,166.5 Z"/></g>
<g><path style="opacity:1" fill="#fbc01e" d="M 284.5,165.5 C 288.371,166.84 292.371,167.673 296.5,168C 295.552,168.483 294.552,168.649 293.5,168.5C 290.475,168.123 287.475,167.956 284.5,168C 281.864,169.41 281.197,171.243 282.5,173.5C 281.833,174.833 280.833,175.833 279.5,176.5C 278.386,171.428 280.053,167.761 284.5,165.5 Z"/></g>
<g><path style="opacity:1" fill="#f7d2c6" d="M 287.5,156.5 C 288.5,156.5 289.5,156.5 290.5,156.5C 293.833,156.5 297.167,156.5 300.5,156.5C 301.5,156.5 302.5,156.5 303.5,156.5C 304.29,157.401 305.29,158.068 306.5,158.5C 307.622,160.288 307.789,162.288 307,164.5C 305.471,165.657 304.304,166.991 303.5,168.5C 302.391,168.557 301.391,168.89 300.5,169.5C 297.941,169.802 295.607,169.468 293.5,168.5C 294.552,168.649 295.552,168.483 296.5,168C 292.371,167.673 288.371,166.84 284.5,165.5C 281.947,163.038 281.947,160.705 284.5,158.5C 285.71,158.068 286.71,157.401 287.5,156.5 Z"/></g>
<g><path style="opacity:1" fill="#ce2011" d="M 407.5,165.5 C 407.229,167.43 406.229,168.764 404.5,169.5C 399.151,168.329 393.818,168.329 388.5,169.5C 388.5,169.167 388.5,168.833 388.5,168.5C 388.179,166.952 387.179,166.285 385.5,166.5C 386.347,165.034 387.68,164.2 389.5,164C 395.647,163.101 401.647,163.601 407.5,165.5 Z"/></g>
<g><path style="opacity:1" fill="#f5a81a" d="M 404.5,162.5 C 405.833,163.167 406.833,164.167 407.5,165.5C 401.647,163.601 395.647,163.101 389.5,164C 387.68,164.2 386.347,165.034 385.5,166.5C 384.833,166.5 384.167,166.5 383.5,166.5C 384.453,164.39 386.119,163.223 388.5,163C 393.823,162.501 399.156,162.334 404.5,162.5 Z"/></g>
<g><path style="opacity:1" fill="#fae2d7" d="M 331.5,161.5 C 336.5,161.5 341.5,161.5 346.5,161.5C 347.671,162.345 349.005,163.011 350.5,163.5C 351.833,165.5 351.833,167.5 350.5,169.5C 348.039,170.305 345.706,169.972 343.5,168.5C 345.655,168.628 347.655,168.128 349.5,167C 350.774,166.023 350.774,165.189 349.5,164.5C 343.064,161.872 336.731,161.872 330.5,164.5C 328.972,164.517 328.472,165.184 329,166.5C 330.584,167.861 332.418,168.528 334.5,168.5C 333.737,169.268 332.737,169.768 331.5,170C 333.343,170.159 334.009,170.659 333.5,171.5C 326.884,170.933 325.218,167.933 328.5,162.5C 329.791,162.737 330.791,162.404 331.5,161.5 Z"/></g>
<g><path style="opacity:1" fill="#f3a112" d="M 349.5,164.5 C 347.883,165.972 345.883,166.639 343.5,166.5C 339.157,165.831 334.823,165.164 330.5,164.5C 336.731,161.872 343.064,161.872 349.5,164.5 Z"/></g>
<g><path style="opacity:1" fill="#ce1e13" d="M 330.5,164.5 C 334.823,165.164 339.157,165.831 343.5,166.5C 345.883,166.639 347.883,165.972 349.5,164.5C 350.774,165.189 350.774,166.023 349.5,167C 347.655,168.128 345.655,168.628 343.5,168.5C 340.5,168.5 337.5,168.5 334.5,168.5C 332.418,168.528 330.584,167.861 329,166.5C 328.472,165.184 328.972,164.517 330.5,164.5 Z"/></g>
<g><path style="opacity:1" fill="#f5ab13" d="M 329.5,156.5 C 328.183,158.876 328.85,160.543 331.5,161.5C 330.791,162.404 329.791,162.737 328.5,162.5C 326.623,161.341 326.123,159.674 327,157.5C 327.671,156.748 328.504,156.414 329.5,156.5 Z"/></g>
<g><path style="opacity:1" fill="#fecc09" d="M 382.5,159.5 C 384.604,159.201 386.604,159.534 388.5,160.5C 387.5,160.833 386.5,161.167 385.5,161.5C 383.97,161.36 382.97,160.693 382.5,159.5 Z"/></g>
<g><path style="opacity:1" fill="#f9b809" d="M 357.5,159.5 C 360.621,160.288 362.288,162.288 362.5,165.5C 358.438,165.131 356.771,163.131 357.5,159.5 Z"/></g>
<g><path style="opacity:1" fill="#cf2514" d="M 286.5,159.5 C 290.142,160.08 293.809,160.58 297.5,161C 294.937,161.763 294.937,162.263 297.5,162.5C 300.505,162.095 303.171,161.095 305.5,159.5C 306.65,161.267 305.983,162.433 303.5,163C 298.167,163.667 292.833,163.667 287.5,163C 284.358,161.982 284.024,160.815 286.5,159.5 Z"/></g>
<g><path style="opacity:1" fill="#f1aeab" d="M 379.5,149.5 C 380.167,149.5 380.833,149.5 381.5,149.5C 384.453,152.506 384.12,155.006 380.5,157C 380.833,157.333 381.167,157.667 381.5,158C 378.155,160.241 374.489,160.908 370.5,160C 371.416,159.722 372.082,159.222 372.5,158.5C 373.552,158.649 374.552,158.483 375.5,158C 372.167,157.667 368.833,157.333 365.5,157C 369.607,156.87 372.94,156.37 375.5,155.5C 376.997,154.694 378.664,154.028 380.5,153.5C 381.773,152.743 381.773,152.077 380.5,151.5C 380.167,150.833 379.833,150.167 379.5,149.5 Z"/></g>
<g><path style="opacity:1" fill="#f3a215" d="M 305.5,159.5 C 303.171,161.095 300.505,162.095 297.5,162.5C 294.937,162.263 294.937,161.763 297.5,161C 293.809,160.58 290.142,160.08 286.5,159.5C 286.918,158.778 287.584,158.278 288.5,158C 294.35,157.052 300.017,157.552 305.5,159.5 Z"/></g>
<g><path style="opacity:1" fill="#fae2de" d="M 363.5,147.5 C 367.833,147.5 372.167,147.5 376.5,147.5C 377.5,148.167 378.5,148.833 379.5,149.5C 376.517,149.102 373.517,148.768 370.5,148.5C 367.514,148.382 364.848,149.048 362.5,150.5C 359.269,151.098 358.936,152.264 361.5,154C 366.066,155.309 370.733,155.809 375.5,155.5C 372.94,156.37 369.607,156.87 365.5,157C 368.833,157.333 372.167,157.667 375.5,158C 374.552,158.483 373.552,158.649 372.5,158.5C 368.395,158.766 364.395,158.266 360.5,157C 358.285,154.758 357.952,152.258 359.5,149.5C 361.153,149.34 362.486,148.674 363.5,147.5 Z"/></g>
<g><path style="opacity:1" fill="#cf2315" d="M 346.5,161.5 C 341.5,161.5 336.5,161.5 331.5,161.5C 328.85,160.543 328.183,158.876 329.5,156.5C 334.813,155.638 340.146,155.471 345.5,156C 351.621,157.226 351.955,159.059 346.5,161.5 Z"/></g>
<g><path style="opacity:1" fill="#f9b81a" d="M 306.5,152.5 C 307.742,154.389 307.742,156.389 306.5,158.5C 305.29,158.068 304.29,157.401 303.5,156.5C 305.229,155.764 306.229,154.43 306.5,152.5 Z"/></g>
<g><path style="opacity:1" fill="#f6ae1e" d="M 285.5,151.5 C 284.183,153.876 284.85,155.543 287.5,156.5C 286.71,157.401 285.71,158.068 284.5,158.5C 283.418,157.406 282.752,156.073 282.5,154.5C 282.516,152.484 283.516,151.484 285.5,151.5 Z"/></g>
<g><path style="opacity:1" fill="#f5ab1f" d="M 334.5,154.5 C 340.028,154 345.362,154.667 350.5,156.5C 351.714,158.859 351.714,161.192 350.5,163.5C 349.005,163.011 347.671,162.345 346.5,161.5C 351.955,159.059 351.621,157.226 345.5,156C 340.146,155.471 334.813,155.638 329.5,156.5C 329.842,155.662 330.508,155.328 331.5,155.5C 332.609,155.443 333.609,155.11 334.5,154.5 Z"/></g>
<g><path style="opacity:1" fill="#f5a823" d="M 379.5,149.5 C 379.833,150.167 380.167,150.833 380.5,151.5C 377.863,153.427 374.863,153.927 371.5,153C 372.833,152.667 374.167,152.333 375.5,152C 371.083,151.772 366.75,151.272 362.5,150.5C 364.848,149.048 367.514,148.382 370.5,148.5C 373.517,148.768 376.517,149.102 379.5,149.5 Z"/></g>
<g><path style="opacity:1" fill="#fecb17" d="M 255.5,150.5 C 256.785,156.294 257.618,162.294 258,168.5C 258.383,169.056 258.883,169.389 259.5,169.5C 259.5,170.167 259.5,170.833 259.5,171.5C 257.565,170.85 255.565,170.517 253.5,170.5C 251.106,168.668 250.106,166.168 250.5,163C 250.525,158.073 252.192,153.907 255.5,150.5 Z"/></g>
<g><path style="opacity:1" fill="#d02917" d="M 362.5,150.5 C 366.75,151.272 371.083,151.772 375.5,152C 374.167,152.333 372.833,152.667 371.5,153C 374.863,153.927 377.863,153.427 380.5,151.5C 381.773,152.077 381.773,152.743 380.5,153.5C 378.664,154.028 376.997,154.694 375.5,155.5C 370.733,155.809 366.066,155.309 361.5,154C 358.936,152.264 359.269,151.098 362.5,150.5 Z"/></g>
<g><path style="opacity:1" fill="#ce1c0e" d="M 306.5,152.5 C 306.229,154.43 305.229,155.764 303.5,156.5C 302.5,156.5 301.5,156.5 300.5,156.5C 298.369,155.686 296.036,155.186 293.5,155C 296.102,152.888 295.602,151.721 292,151.5C 290.596,151.509 289.43,152.009 288.5,153C 289.823,153.816 290.489,154.983 290.5,156.5C 289.5,156.5 288.5,156.5 287.5,156.5C 284.85,155.543 284.183,153.876 285.5,151.5C 292.61,149.945 299.61,150.278 306.5,152.5 Z"/></g>
<g><path style="opacity:1" fill="#f2b8b6" d="M 300.5,156.5 C 297.167,156.5 293.833,156.5 290.5,156.5C 290.489,154.983 289.823,153.816 288.5,153C 289.43,152.009 290.596,151.509 292,151.5C 295.602,151.721 296.102,152.888 293.5,155C 296.036,155.186 298.369,155.686 300.5,156.5 Z"/></g>
<g><path style="opacity:1" fill="#f4a409" d="M 306.5,152.5 C 299.61,150.278 292.61,149.945 285.5,151.5C 287.148,150.073 289.148,149.24 291.5,149C 289.963,147.89 289.297,146.39 289.5,144.5C 291.199,144.34 292.866,144.506 294.5,145C 295.458,146.147 295.125,147.147 293.5,148C 296.833,148.667 300.167,149.333 303.5,150C 304.942,150.377 305.942,151.21 306.5,152.5 Z"/></g>
<g><path style="opacity:1" fill="#fdf6f4" d="M 331.5,148.5 C 332.167,148.5 332.833,148.5 333.5,148.5C 334.461,150.265 334.795,152.265 334.5,154.5C 333.609,155.11 332.609,155.443 331.5,155.5C 331.5,153.167 331.5,150.833 331.5,148.5 Z"/></g>
<g><path style="opacity:1" fill="#f8b317" d="M 382.5,142.5 C 384.044,145.172 383.711,147.505 381.5,149.5C 380.833,149.5 380.167,149.5 379.5,149.5C 378.5,148.833 377.5,148.167 376.5,147.5C 377.93,147.579 379.264,147.246 380.5,146.5C 381.711,145.726 381.711,144.893 380.5,144C 375.723,142.02 370.723,141.02 365.5,141C 371.315,140.123 376.982,140.623 382.5,142.5 Z"/></g>
<g><path style="opacity:1" fill="#f9d8d7" d="M 365.5,142.5 C 367.5,142.5 369.5,142.5 371.5,142.5C 371.299,146.35 369.466,147.35 366,145.5C 365.517,144.552 365.351,143.552 365.5,142.5 Z"/></g>
<g><path style="opacity:1" fill="#fcc310" d="M 363.5,147.5 C 362.486,148.674 361.153,149.34 359.5,149.5C 358.232,147.33 358.232,145.163 359.5,143C 360.167,142.333 360.833,142.333 361.5,143C 358.871,145.595 359.538,147.095 363.5,147.5 Z"/></g>
<g><path style="opacity:1" fill="#fcc612" d="M 333.5,148.5 C 332.833,148.5 332.167,148.5 331.5,148.5C 331.5,146.167 331.5,143.833 331.5,141.5C 332.5,141.5 333.5,141.5 334.5,141.5C 334.702,143.95 334.369,146.283 333.5,148.5 Z"/></g>
<g><path style="opacity:1" fill="#f8d8d6" d="M 306.5,136.5 C 311.5,136.5 316.5,136.5 321.5,136.5C 322.514,137.674 323.847,138.34 325.5,138.5C 327.288,141.745 326.622,144.245 323.5,146C 323.833,146.333 324.167,146.667 324.5,147C 322.589,148.416 320.422,149.25 318,149.5C 312.738,148.217 307.572,146.717 302.5,145C 301.232,142.837 301.232,140.67 302.5,138.5C 304.153,138.34 305.486,137.674 306.5,136.5 Z"/></g>
<g><path style="opacity:1" fill="#e88e8d" d="M 318.5,144.5 C 318.842,143.662 319.508,143.328 320.5,143.5C 320.918,144.222 321.584,144.722 322.5,145C 319.833,145.667 319.833,146.333 322.5,147C 317.877,146.854 313.21,146.52 308.5,146C 312.607,145.87 315.94,145.37 318.5,144.5 Z"/></g>
<g><path style="opacity:1" fill="#f6ac20" d="M 319.5,138.5 C 321.553,138.402 323.22,139.069 324.5,140.5C 321.686,142.096 318.686,142.596 315.5,142C 315.833,141.667 316.167,141.333 316.5,141C 313.854,140.503 311.187,140.336 308.5,140.5C 312.167,139.833 315.833,139.167 319.5,138.5 Z"/></g>
<g><path style="opacity:1" fill="#d02717" d="M 305.5,139.5 C 306.391,140.11 307.391,140.443 308.5,140.5C 311.187,140.336 313.854,140.503 316.5,141C 316.167,141.333 315.833,141.667 315.5,142C 318.686,142.596 321.686,142.096 324.5,140.5C 323.965,142.446 322.632,143.446 320.5,143.5C 319.508,143.328 318.842,143.662 318.5,144.5C 313.752,144.725 309.085,144.225 304.5,143C 301.841,141.134 302.174,139.967 305.5,139.5 Z"/></g>
<g><path style="opacity:1" fill="#efacab" d="M 357.5,133.5 C 358.896,135.373 360.563,135.706 362.5,134.5C 362.586,135.496 362.252,136.329 361.5,137C 359.134,138.233 356.634,139.066 354,139.5C 352.624,139.316 351.791,138.649 351.5,137.5C 352.873,137.657 354.207,137.49 355.5,137C 352.167,136.667 348.833,136.333 345.5,136C 349.025,135.821 352.359,135.321 355.5,134.5C 355.842,133.662 356.508,133.328 357.5,133.5 Z"/></g>
<g><path style="opacity:1" fill="#ef9024" d="M 319.5,138.5 C 315.833,139.167 312.167,139.833 308.5,140.5C 307.391,140.443 306.391,140.11 305.5,139.5C 309.95,137.324 314.617,136.99 319.5,138.5 Z"/></g>
<g><path style="opacity:1" fill="#f9b927" d="M 302.5,133.5 C 303.262,135.262 304.596,136.262 306.5,136.5C 305.486,137.674 304.153,138.34 302.5,138.5C 301.766,137.292 301.433,135.959 301.5,134.5C 301.5,133.833 301.833,133.5 302.5,133.5 Z"/></g>
<g><path style="opacity:1" fill="#f9b809" d="M 365.5,135.5 C 367.75,135.181 369.75,135.681 371.5,137C 368.28,140.645 366.28,140.145 365.5,135.5 Z"/></g>
<g><path style="opacity:1" fill="#fadbd8" d="M 343.5,126.5 C 348.167,126.5 352.833,126.5 357.5,126.5C 358.514,127.674 359.847,128.34 361.5,128.5C 362.341,130.379 362.675,132.379 362.5,134.5C 360.563,135.706 358.896,135.373 357.5,133.5C 358.583,133.461 359.583,133.127 360.5,132.5C 361.773,131.743 361.773,131.077 360.5,130.5C 359.22,129.069 357.553,128.402 355.5,128.5C 352.167,127.167 348.833,127.167 345.5,128.5C 343.901,128.232 342.568,128.566 341.5,129.5C 338.982,130.694 338.982,131.86 341.5,133C 346.085,134.225 350.752,134.725 355.5,134.5C 352.359,135.321 349.025,135.821 345.5,136C 348.833,136.333 352.167,136.667 355.5,137C 354.207,137.49 352.873,137.657 351.5,137.5C 347.288,137.922 343.288,137.256 339.5,135.5C 336.932,133.002 336.932,130.669 339.5,128.5C 340.995,128.011 342.329,127.345 343.5,126.5 Z"/></g>
<g><path style="opacity:1" fill="#d02815" d="M 341.5,129.5 C 345.972,129.864 350.305,130.864 354.5,132.5C 356.597,132.023 358.597,131.357 360.5,130.5C 361.773,131.077 361.773,131.743 360.5,132.5C 359.583,133.127 358.583,133.461 357.5,133.5C 356.508,133.328 355.842,133.662 355.5,134.5C 350.752,134.725 346.085,134.225 341.5,133C 338.982,131.86 338.982,130.694 341.5,129.5 Z"/></g>
<g><path style="opacity:1" fill="#f7b012" d="M 309.5,130.5 C 310.209,129.596 311.209,129.263 312.5,129.5C 317.046,129.268 321.379,130.101 325.5,132C 326.768,134.163 326.768,136.33 325.5,138.5C 323.847,138.34 322.514,137.674 321.5,136.5C 323.912,136.306 324.912,134.973 324.5,132.5C 319.636,130.959 314.636,130.292 309.5,130.5 Z"/></g>
<g><path style="opacity:1" fill="#cf2410" d="M 309.5,130.5 C 314.636,130.292 319.636,130.959 324.5,132.5C 324.912,134.973 323.912,136.306 321.5,136.5C 316.5,136.5 311.5,136.5 306.5,136.5C 304.596,136.262 303.262,135.262 302.5,133.5C 304.713,132.227 307.046,131.227 309.5,130.5 Z"/></g>
<g><path style="opacity:1" fill="#f7b21a" d="M 341.5,129.5 C 342.568,128.566 343.901,128.232 345.5,128.5C 348.833,129.833 352.167,129.833 355.5,128.5C 357.553,128.402 359.22,129.069 360.5,130.5C 358.597,131.357 356.597,132.023 354.5,132.5C 350.305,130.864 345.972,129.864 341.5,129.5 Z"/></g>
<g><path style="opacity:1" fill="#ee8e26" d="M 355.5,128.5 C 352.167,129.833 348.833,129.833 345.5,128.5C 348.833,127.167 352.167,127.167 355.5,128.5 Z"/></g>
<g><path style="opacity:1" fill="#f8b727" d="M 360.5,122.5 C 361.492,122.328 362.158,122.662 362.5,123.5C 362.634,125.292 362.301,126.958 361.5,128.5C 359.847,128.34 358.514,127.674 357.5,126.5C 360.651,126.386 361.651,125.053 360.5,122.5 Z"/></g>
<g><path style="opacity:1" fill="#f8b514" d="M 338.5,122.5 C 338.833,122.5 339.167,122.5 339.5,122.5C 339.488,125.142 340.821,126.475 343.5,126.5C 342.329,127.345 340.995,128.011 339.5,128.5C 337.469,126.751 337.135,124.751 338.5,122.5 Z"/></g>
<g><path style="opacity:1" fill="#ce1c10" d="M 355.5,121.5 C 357.216,121.629 358.883,121.962 360.5,122.5C 361.651,125.053 360.651,126.386 357.5,126.5C 352.833,126.5 348.167,126.5 343.5,126.5C 340.821,126.475 339.488,125.142 339.5,122.5C 344.787,121.658 350.12,121.324 355.5,121.5 Z"/></g>
<g><path style="opacity:1" fill="#fccf4b" d="M 355.5,121.5 C 357.455,120.07 359.121,120.403 360.5,122.5C 358.883,121.962 357.216,121.629 355.5,121.5 Z"/></g>
<g><path style="opacity:1" fill="#cf2311" d="M 355.5,113.5 C 356.601,114.848 357.601,116.348 358.5,118C 318.34,118.415 286.007,134.248 261.5,165.5C 261.343,164.127 261.51,162.793 262,161.5C 285.328,130.584 316.495,114.584 355.5,113.5 Z"/></g>
<g><path style="opacity:1" fill="#fbc00c" d="M 353.5,111.5 C 354.5,111.833 355.167,112.5 355.5,113.5C 316.495,114.584 285.328,130.584 262,161.5C 261.51,162.793 261.343,164.127 261.5,165.5C 261.068,166.71 260.401,167.71 259.5,168.5C 258.739,163.361 260.239,159.027 264,155.5C 287.068,127.383 316.902,112.717 353.5,111.5 Z"/></g>
<g><path style="opacity:1" fill="#cc170d" d="M 353.5,111.5 C 316.902,112.717 287.068,127.383 264,155.5C 260.239,159.027 258.739,163.361 259.5,168.5C 259.5,168.833 259.5,169.167 259.5,169.5C 258.883,169.389 258.383,169.056 258,168.5C 257.618,162.294 256.785,156.294 255.5,150.5C 259.89,143.272 265.556,137.105 272.5,132C 291.55,117.979 312.884,109.812 336.5,107.5C 342.758,106.818 348.425,108.152 353.5,111.5 Z"/></g>
<g><path style="opacity:1" fill="#fabd09" d="M 332.5,178.5 C 335.833,178.5 337.5,180.167 337.5,183.5C 334.167,183.5 332.5,181.833 332.5,178.5 Z"/></g>
<g><path style="opacity:1" fill="#efaaa8" d="M 387.5,175.5 C 391.4,176.43 395.4,176.763 399.5,176.5C 401.374,177.285 403.374,177.952 405.5,178.5C 406.598,179.397 406.598,180.23 405.5,181C 403.634,181.985 401.634,182.485 399.5,182.5C 396.116,181.176 392.116,179.842 387.5,178.5C 386.167,177.5 386.167,176.5 387.5,175.5 Z"/></g>
<g><path style="opacity:1" fill="#fbc00e" d="M 404.5,196.5 C 403.599,195.71 402.932,194.71 402.5,193.5C 402.919,190.675 401.919,188.509 399.5,187C 394.976,186.295 390.476,185.462 386,184.5C 382.11,185.169 380.61,187.169 381.5,190.5C 380.833,191.833 379.833,192.833 378.5,193.5C 377.631,187.889 379.797,184.222 385,182.5C 390.604,183.294 396.104,184.461 401.5,186C 404.1,188.984 405.1,192.484 404.5,196.5 Z"/></g>
<g><path style="opacity:1" fill="#d02c13" d="M 261.5,184.5 C 266.875,184.541 269.541,187.208 269.5,192.5C 267.104,191.7 264.771,190.7 262.5,189.5C 261.691,187.929 261.357,186.262 261.5,184.5 Z"/></g>
<g><path style="opacity:1" fill="#f7af0f" d="M 330.5,196.5 C 329.512,195.205 328.512,193.872 327.5,192.5C 327.041,186.071 324.541,185.071 320,189.5C 319.51,190.793 319.343,192.127 319.5,193.5C 319.167,194.5 318.5,195.167 317.5,195.5C 316.663,190.168 318.663,186.501 323.5,184.5C 329.395,186.277 331.729,190.277 330.5,196.5 Z"/></g>
<g><path style="opacity:1" fill="#fae0e0" d="M 332.5,185.5 C 335.272,185.595 337.272,186.929 338.5,189.5C 334.699,191.046 332.699,189.713 332.5,185.5 Z"/></g>
<g><path style="opacity:1" fill="#ce220f" d="M 402.5,193.5 C 395.746,190.429 388.746,189.429 381.5,190.5C 380.61,187.169 382.11,185.169 386,184.5C 390.476,185.462 394.976,186.295 399.5,187C 401.919,188.509 402.919,190.675 402.5,193.5 Z"/></g>
<g><path style="opacity:1" fill="#fdf1f0" d="M 424.5,185.5 C 428.264,186.423 429.764,188.756 429,192.5C 426.418,190.772 424.918,188.439 424.5,185.5 Z"/></g>
<g><path style="opacity:1" fill="#fcc517" d="M 261.5,182.5 C 262.167,182.833 262.833,183.167 263.5,183.5C 264.5,183.5 265.5,183.5 266.5,183.5C 270.947,185.761 272.614,189.428 271.5,194.5C 270.5,194.167 269.833,193.5 269.5,192.5C 269.541,187.208 266.875,184.541 261.5,184.5C 261.5,183.833 261.5,183.167 261.5,182.5 Z"/></g>
<g><path style="opacity:1" fill="#d0270e" d="M 327.5,192.5 C 324.545,190.91 321.878,191.243 319.5,193.5C 319.343,192.127 319.51,190.793 320,189.5C 324.541,185.071 327.041,186.071 327.5,192.5 Z"/></g>
<g><path style="opacity:1" fill="#fbc214" d="M 378.5,200.5 C 378.5,201.167 378.5,201.833 378.5,202.5C 375.92,204.994 373.253,204.994 370.5,202.5C 369.833,201.5 369.167,200.5 368.5,199.5C 368.336,193.512 365.836,192.179 361,195.5C 360.51,196.793 360.343,198.127 360.5,199.5C 360.068,200.71 359.401,201.71 358.5,202.5C 358.211,199.351 358.711,196.351 360,193.5C 363.619,190.657 366.952,190.99 370,194.5C 370.02,200.701 372.853,202.701 378.5,200.5 Z"/></g>
<g><path style="opacity:1" fill="#fabe18" d="M 401.5,196.5 C 395.248,195.035 388.914,194.035 382.5,193.5C 382.866,192.305 383.699,191.639 385,191.5C 389.494,192.333 393.994,193.166 398.5,194C 399.942,194.377 400.942,195.21 401.5,196.5 Z"/></g>
<g><path style="opacity:1" fill="#ce2215" d="M 382.5,193.5 C 388.914,194.035 395.248,195.035 401.5,196.5C 402.451,197.919 402.784,199.585 402.5,201.5C 395.557,200.111 388.557,199.111 381.5,198.5C 381.216,196.585 381.549,194.919 382.5,193.5 Z"/></g>
<g><path style="opacity:1" fill="#fdc709" d="M 408.5,199.5 C 407.833,199.5 407.167,199.5 406.5,199.5C 407.167,190.167 407.833,190.167 408.5,199.5 Z"/></g>
<g><path style="opacity:1" fill="#ce1e12" d="M 368.5,199.5 C 365.833,198.167 363.167,198.167 360.5,199.5C 360.343,198.127 360.51,196.793 361,195.5C 365.836,192.179 368.336,193.512 368.5,199.5 Z"/></g>
<g><path style="opacity:1" fill="#fcc30a" d="M 271.5,194.5 C 274.167,197.167 276.833,197.167 279.5,194.5C 279.5,195.5 279.5,196.5 279.5,197.5C 276.833,198.833 274.167,198.833 271.5,197.5C 271.5,196.5 271.5,195.5 271.5,194.5 Z"/></g>
<g><path style="opacity:1" fill="#fbbf15" d="M 437.5,205.5 C 436.167,204.833 435.167,203.833 434.5,202.5C 432.039,201.469 429.373,200.802 426.5,200.5C 426.5,201.5 426.5,202.5 426.5,203.5C 426.068,204.71 425.401,205.71 424.5,206.5C 424.211,203.351 424.711,200.351 426,197.5C 434.268,193.589 438.101,196.255 437.5,205.5 Z"/></g>
<g><path style="opacity:1" fill="#d43809" d="M 428.5,197.5 C 430.527,197.338 432.527,197.505 434.5,198C 435.993,199.156 435.826,199.99 434,200.5C 431.552,200.301 429.719,199.301 428.5,197.5 Z"/></g>
<g><path style="opacity:1" fill="#ce1e16" d="M 271.5,197.5 C 274.167,198.833 276.833,198.833 279.5,197.5C 279.657,198.873 279.49,200.207 279,201.5C 274.164,204.821 271.664,203.488 271.5,197.5 Z"/></g>
<g><path style="opacity:1" fill="#fbbf10" d="M 350.5,208.5 C 349.599,207.71 348.932,206.71 348.5,205.5C 348.336,199.512 345.836,198.179 341,201.5C 340.51,202.793 340.343,204.127 340.5,205.5C 340.167,206.5 339.5,207.167 338.5,207.5C 337.185,202.232 339.018,198.899 344,197.5C 349.692,198.863 351.859,202.529 350.5,208.5 Z"/></g>
<g><path style="opacity:1" fill="#ce1f0e" d="M 348.5,205.5 C 345.796,204.286 343.129,204.286 340.5,205.5C 340.343,204.127 340.51,202.793 341,201.5C 345.836,198.179 348.336,199.512 348.5,205.5 Z"/></g>
<g><path style="opacity:1" fill="#e16f6e" d="M 383.5,200.5 C 381.94,202.156 380.94,204.156 380.5,206.5C 380.5,204.167 380.5,201.833 380.5,199.5C 381.791,199.263 382.791,199.596 383.5,200.5 Z"/></g>
<g><path style="opacity:1" fill="#f9d3cd" d="M 406.5,199.5 C 407.167,199.5 407.833,199.5 408.5,199.5C 409.369,201.717 409.702,204.05 409.5,206.5C 407.62,206.771 406.287,206.104 405.5,204.5C 405.366,202.708 405.699,201.042 406.5,199.5 Z"/></g>
<g><path style="opacity:1" fill="#e16231" d="M 434.5,202.5 C 431.763,202.401 429.096,202.735 426.5,203.5C 426.5,202.5 426.5,201.5 426.5,200.5C 429.373,200.802 432.039,201.469 434.5,202.5 Z"/></g>
<g><path style="opacity:1" fill="#cf2618" d="M 370.5,202.5 C 373.253,204.994 375.92,204.994 378.5,202.5C 378.66,204.199 378.494,205.866 378,207.5C 372.981,209.65 370.481,207.984 370.5,202.5 Z"/></g>
<g><path style="opacity:1" fill="#fefcfc" d="M 434.5,202.5 C 435.167,203.833 436.167,204.833 437.5,205.5C 437.5,206.167 437.5,206.833 437.5,207.5C 437.298,209.95 437.631,212.283 438.5,214.5C 438.366,216.292 438.699,217.958 439.5,219.5C 439.5,220.167 439.167,220.5 438.5,220.5C 437.21,219.942 436.377,218.942 436,217.5C 435.503,214.854 435.336,212.187 435.5,209.5C 432.545,208.841 429.545,208.508 426.5,208.5C 426.974,218.462 426.307,228.295 424.5,238C 429.875,281.17 435.209,324.337 440.5,367.5C 431.151,367.483 421.818,367.817 412.5,368.5C 411.653,360.518 410.986,352.518 410.5,344.5C 404.167,344.5 397.833,344.5 391.5,344.5C 391.816,352.752 391.482,360.919 390.5,369C 381.173,369.5 371.839,369.666 362.5,369.5C 365.069,320.133 368.236,270.799 372,221.5C 381.083,220.515 390.249,220.182 399.5,220.5C 404.167,220.5 408.833,220.5 413.5,220.5C 413.5,219.5 413.5,218.5 413.5,217.5C 413.5,216.833 413.833,216.5 414.5,216.5C 414.5,217.167 414.833,217.5 415.5,217.5C 417.279,219.344 419.612,220.01 422.5,219.5C 422.5,221.167 422.5,222.833 422.5,224.5C 420.183,225.942 418.016,225.608 416,223.5C 415.316,224.784 415.483,225.951 416.5,227C 418.81,227.497 421.143,227.663 423.5,227.5C 423.351,228.552 423.517,229.552 424,230.5C 424.497,228.19 424.663,225.857 424.5,223.5C 424.5,217.833 424.5,212.167 424.5,206.5C 425.401,205.71 426.068,204.71 426.5,203.5C 429.096,202.735 431.763,202.401 434.5,202.5 Z"/></g>
<g><path style="opacity:1" fill="#d3362b" d="M 428.5,204.5 C 431.157,204.162 433.49,204.829 435.5,206.5C 434.169,207.166 432.669,207.166 431,206.5C 429.624,206.316 428.791,205.649 428.5,204.5 Z"/></g>
<g><path style="opacity:1" fill="#fdc71b" d="M 404.5,204.5 C 404.833,204.5 405.167,204.5 405.5,204.5C 406.287,206.104 407.62,206.771 409.5,206.5C 414.822,208.131 416.822,211.797 415.5,217.5C 414.833,217.5 414.5,217.167 414.5,216.5C 414.167,215.833 413.833,215.167 413.5,214.5C 413.822,212.278 413.155,210.444 411.5,209C 408.849,208.847 406.516,208.013 404.5,206.5C 404.5,205.833 404.5,205.167 404.5,204.5 Z"/></g>
<g><path style="opacity:1" fill="#cf2514" d="M 404.5,206.5 C 406.516,208.013 408.849,208.847 411.5,209C 413.155,210.444 413.822,212.278 413.5,214.5C 407.387,215.227 404.387,212.56 404.5,206.5 Z"/></g>
<g><path style="opacity:1" fill="#fbc00b" d="M 350.5,208.5 C 353.105,211.054 355.771,211.054 358.5,208.5C 358.5,209.5 358.5,210.5 358.5,211.5C 355.833,212.833 353.167,212.833 350.5,211.5C 350.5,210.5 350.5,209.5 350.5,208.5 Z"/></g>
<g><path style="opacity:1" fill="#fcc717" d="M 309.5,208.5 C 311.922,210.65 314.589,210.983 317.5,209.5C 317.5,210.167 317.5,210.833 317.5,211.5C 314.833,212.833 312.167,212.833 309.5,211.5C 309.5,210.5 309.5,209.5 309.5,208.5 Z"/></g>
<g><path style="opacity:1" fill="#fbc31d" d="M 338.5,208.5 C 338.5,209.5 338.5,210.5 338.5,211.5C 335.946,212.388 333.279,212.721 330.5,212.5C 330.5,211.5 330.5,210.5 330.5,209.5C 333.411,210.983 336.078,210.65 338.5,208.5 Z"/></g>
<g><path style="opacity:1" fill="#d12f1a" d="M 309.5,211.5 C 312.167,212.833 314.833,212.833 317.5,211.5C 317.66,213.199 317.494,214.866 317,216.5C 311.981,218.65 309.481,216.984 309.5,211.5 Z"/></g>
<g><path style="opacity:1" fill="#d2301e" d="M 338.5,211.5 C 339.062,215.099 337.562,217.099 334,217.5C 330.997,217.257 329.83,215.59 330.5,212.5C 333.279,212.721 335.946,212.388 338.5,211.5 Z"/></g>
<g><path style="opacity:1" fill="#cf240f" d="M 350.5,211.5 C 353.167,212.833 355.833,212.833 358.5,211.5C 358.657,212.873 358.49,214.207 358,215.5C 353.164,218.821 350.664,217.488 350.5,211.5 Z"/></g>
<g><path style="opacity:1" fill="#fcc839" d="M 437.5,207.5 C 438.131,209.448 439.131,211.281 440.5,213C 443.375,213.961 445.375,213.128 446.5,210.5C 447.686,211.705 447.686,213.039 446.5,214.5C 443.833,215.833 441.167,215.833 438.5,214.5C 437.631,212.283 437.298,209.95 437.5,207.5 Z"/></g>
<g><path style="opacity:1" fill="#cd1610" d="M 438.5,214.5 C 441.167,215.833 443.833,215.833 446.5,214.5C 446.604,219.74 444.271,221.406 439.5,219.5C 438.699,217.958 438.366,216.292 438.5,214.5 Z"/></g>
<g><path style="opacity:1" fill="#fdc809" d="M 95.5,219.5 C 96.5,219.5 97.5,219.5 98.5,219.5C 100.517,228.235 102.851,236.902 105.5,245.5C 104.976,248.396 103.476,249.063 101,247.5C 98.2209,239.159 95.0542,230.993 91.5,223C 93.0931,222.051 94.4264,220.885 95.5,219.5 Z"/></g>
<g><path style="opacity:1" fill="#dd605d" d="M 412.5,217.5 C 412.833,217.5 413.167,217.5 413.5,217.5C 413.5,218.5 413.5,219.5 413.5,220.5C 408.833,220.5 404.167,220.5 399.5,220.5C 404.094,220.135 408.427,219.135 412.5,217.5 Z"/></g>
<g><path style="opacity:1" fill="#fefcfc" d="M 348.5,344.5 C 350.95,344.298 353.283,344.631 355.5,345.5C 356.167,353.833 356.833,362.167 357.5,370.5C 336.582,373.491 315.582,375.824 294.5,377.5C 293.647,368.824 292.647,360.157 291.5,351.5C 299.008,319.136 306.674,286.803 314.5,254.5C 304.515,255.555 294.515,256.055 284.5,256C 282.956,247.271 281.956,238.438 281.5,229.5C 302.153,227.428 322.82,225.428 343.5,223.5C 344.114,232.85 344.614,242.183 345,251.5C 337.494,283.522 329.994,315.522 322.5,347.5C 331.167,346.5 339.834,345.5 348.5,344.5 Z"/></g>
<g><path style="opacity:1" fill="#f9bb26" d="M 422.5,224.5 C 423.167,224.167 423.833,223.833 424.5,223.5C 424.663,225.857 424.497,228.19 424,230.5C 423.517,229.552 423.351,228.552 423.5,227.5C 421.143,227.663 418.81,227.497 416.5,227C 415.483,225.951 415.316,224.784 416,223.5C 418.016,225.608 420.183,225.942 422.5,224.5 Z"/></g>
<g><path style="opacity:1" fill="#fefcfc" d="M 262.5,232.5 C 263.649,232.791 264.316,233.624 264.5,235C 265.576,242.382 266.91,249.715 268.5,257C 263.599,290.07 258.266,323.07 252.5,356C 252.833,356.833 253.167,357.667 253.5,358.5C 263.945,355.344 274.612,353.344 285.5,352.5C 287.166,361.165 288.833,369.832 290.5,378.5C 269.533,382.658 248.533,386.658 227.5,390.5C 226.349,381.745 224.682,373.078 222.5,364.5C 227.746,331.526 232.746,298.526 237.5,265.5C 227.585,267.683 217.585,269.35 207.5,270.5C 206.165,261.494 204.832,252.494 203.5,243.5C 223.36,240.193 243.027,236.526 262.5,232.5 Z"/></g>
<g><path style="opacity:1" fill="#cd1a14" d="M 396.5,245.5 C 398.473,249.707 399.64,254.374 400,259.5C 402.277,280.162 404.444,300.829 406.5,321.5C 402.167,321.5 397.833,321.5 393.5,321.5C 394.847,296.181 395.847,270.848 396.5,245.5 Z"/></g>
<g><path style="opacity:1" fill="#fefcfc" d="M 180.5,249.5 C 182.144,249.286 183.644,249.62 185,250.5C 197.012,297.548 209.179,344.548 221.5,391.5C 219.887,392.427 218.221,393.261 216.5,394C 209.081,395.521 201.748,397.355 194.5,399.5C 194.167,399 193.833,398.5 193.5,398C 180.619,350.642 168.286,303.142 156.5,255.5C 164.687,253.787 172.687,251.787 180.5,249.5 Z"/></g>
<g><path style="opacity:1" fill="#fefdfd" d="M 113.5,268.5 C 125.268,266.367 135.101,269.7 143,278.5C 155.468,296.238 160.802,315.904 159,337.5C 156.802,344.081 152.636,348.915 146.5,352C 140.192,354.039 134.192,356.539 128.5,359.5C 134.299,377.563 140.299,395.563 146.5,413.5C 137.399,416.923 128.233,420.257 119,423.5C 103.8,376.734 88.3001,330.067 72.5,283.5C 72.7093,282.914 73.0426,282.414 73.5,282C 86.979,277.563 100.312,273.063 113.5,268.5 Z"/></g>
<g><path style="opacity:1" fill="#cc130f" d="M 111.5,297.5 C 115.516,296.9 119.016,297.9 122,300.5C 125.115,305.844 127.448,311.511 129,317.5C 131.293,325.252 128.626,330.252 121,332.5C 120.055,332.095 119.388,331.428 119,330.5C 115.599,320.13 112.099,309.796 108.5,299.5C 109.602,298.824 110.602,298.158 111.5,297.5 Z"/></g>
<g><path style="opacity:1" fill="#e99291" d="M 348.5,344.5 C 349.449,343.848 350.615,343.514 352,343.5C 353.681,343.608 354.848,344.275 355.5,345.5C 353.283,344.631 350.95,344.298 348.5,344.5 Z"/></g>
</svg>
